<?xml version="1.0" encoding="UTF-8" standalone="no"?>
<!-- Created with Inkscape (http://www.inkscape.org/) -->

<svg
   width="60mm"
   height="60mm"
   viewBox="0 0 60 60"
   version="1.1"
   id="svg341"
   inkscape:version="1.2.1 (9c6d41e410, 2022-07-14)"
   sodipodi:docname="dualulogo.svg"
   xmlns:inkscape="http://www.inkscape.org/namespaces/inkscape"
   xmlns:sodipodi="http://sodipodi.sourceforge.net/DTD/sodipodi-0.dtd"
   xmlns="http://www.w3.org/2000/svg"
   xmlns:svg="http://www.w3.org/2000/svg">
  <sodipodi:namedview
     id="namedview343"
     pagecolor="#ffffff"
     bordercolor="#000000"
     borderopacity="0.25"
     inkscape:showpageshadow="2"
     inkscape:pageopacity="0"
     inkscape:pagecheckerboard="true"
     inkscape:deskcolor="#d1d1d1"
     inkscape:document-units="mm"
     showgrid="false"
     inkscape:zoom="1.3808221"
     inkscape:cx="-21.001981"
     inkscape:cy="154.61804"
     inkscape:window-width="1920"
     inkscape:window-height="1011"
     inkscape:window-x="0"
     inkscape:window-y="0"
     inkscape:window-maximized="1"
     inkscape:current-layer="layer1" />
  <defs
     id="defs338" />
  <g
     inkscape:label="Layer 1"
     inkscape:groupmode="layer"
     id="layer1">
    <text
       xml:space="preserve"
       style="font-size:33.8667px;font-family:'Baloo 2';-inkscape-font-specification:'Baloo 2, ';opacity:0.5;fill:#000000;stroke-width:0.264583"
       x="-20.227137"
       y="49.493015"
       id="text1014"><tspan
         sodipodi:role="line"
         id="tspan1012"
         style="stroke-width:0.264583"
         x="-20.227137"
         y="49.493015">`</tspan></text>
    <circle
       style="opacity:1;fill:#ffffff;stroke-width:0.291063"
       id="path113"
       cx="30"
       cy="30"
       r="27.5" />
  </g>
  <g
     inkscape:groupmode="layer"
     id="layer2"
     inkscape:label="Layer 2">
    <g
       id="g228">
      <path
         d="M 20,22.643167 V 18.08029 h 3.859823 v 4.36231 q 0,3.209057 1.640429,4.613019 1.640429,1.403963 4.535307,1.403963 1.929919,0 3.280859,-0.401133 1.35095,-0.451274 2.12292,-0.902546 V 18.08029 h 3.85983 v 8.925187 q 0,1.052972 -0.28949,1.704812 -0.24124,0.601698 -1.25445,1.203396 -1.06145,0.651839 -3.03961,1.253537 -1.97816,0.601698 -4.728305,0.601698 -3.184367,0 -5.45202,-0.952689 -2.219394,-1.002829 -3.37735,-3.00849 Q 20,25.75194 20,22.643167 Z m 19.299168,-1.955518 h -3.85983 V 8.051989 Q 35.680578,7.95171 36.163048,7.851424 36.693778,7.701 37.224498,7.701 q 1.06146,0 1.54394,0.451272 0.53073,0.401133 0.53073,1.403963 z m -15.439345,0 H 20 V 8.051989 Q 20.241229,7.95171 20.723716,7.851424 21.254434,7.701 21.833413,7.701 q 1.013205,0 1.495691,0.451272 0.530719,0.401133 0.530719,1.403963 z"
         id="path1005"
         style="font-size:34.805px;font-family:'Baloo 2';-inkscape-font-specification:'Baloo 2, ';stroke-width:0.384261;image-rendering:optimizeQuality" />
      <g
         aria-label="n"
         id="text359"
         style="font-size:33.8667px;font-family:'Baloo 2';-inkscape-font-specification:'Baloo 2, ';opacity:0.5;stroke-width:0.264583;image-rendering:optimizeQuality"
         transform="matrix(1.4131764,0,0,1.4131764,-28.843757,-37.055012)">
        <path
           d="m 48.715615,52.730753 v 3.454404 H 46.006279 V 52.86622 q 0,-1.896535 -1.083734,-2.777069 -1.049868,-0.880534 -2.844803,-0.880534 -1.354668,0 -2.404536,0.338667 -1.049867,0.338667 -1.794935,0.778934 v 5.858939 h -2.709336 v -5.723472 q 0,-0.711201 0.270934,-1.151468 0.3048,-0.474134 1.016001,-0.914401 0.880534,-0.508001 2.336802,-0.948268 1.456268,-0.474133 3.28507,-0.474133 3.08187,0 4.842938,1.422401 1.794935,1.388535 1.794935,4.334937 z m -13.54668,1.591735 h 2.709336 v 8.669875 q -0.169333,0.06773 -0.508,0.135467 -0.338667,0.1016 -0.745068,0.1016 -0.7112,0 -1.083734,-0.270933 -0.372534,-0.304801 -0.372534,-0.948268 z m 10.837344,0 h 2.709336 v 8.669875 q -0.169333,0.06773 -0.541867,0.135467 -0.338667,0.1016 -0.711201,0.1016 -0.745067,0 -1.117601,-0.270933 -0.338667,-0.304801 -0.338667,-0.948268 z"
           id="path978" />
      </g>
    </g>
  </g>
</svg>
