<?xml version="1.0" encoding="UTF-8" standalone="no"?>
<!-- Created with Inkscape (http://www.inkscape.org/) -->

<svg
   width="200mm"
   height="100mm"
   viewBox="0 0 200 100"
   version="1.1"
   id="svg341"
   inkscape:version="1.2.1 (9c6d41e410, 2022-07-14)"
   sodipodi:docname="dualsollogo-light.svg"
   xmlns:inkscape="http://www.inkscape.org/namespaces/inkscape"
   xmlns:sodipodi="http://sodipodi.sourceforge.net/DTD/sodipodi-0.dtd"
   xmlns="http://www.w3.org/2000/svg"
   xmlns:svg="http://www.w3.org/2000/svg">
  <sodipodi:namedview
     id="namedview343"
     pagecolor="#ffffff"
     bordercolor="#000000"
     borderopacity="0.25"
     inkscape:showpageshadow="2"
     inkscape:pageopacity="0"
     inkscape:pagecheckerboard="true"
     inkscape:deskcolor="#d1d1d1"
     inkscape:document-units="mm"
     showgrid="false"
     inkscape:zoom="1.3808221"
     inkscape:cx="411.34915"
     inkscape:cy="240.79858"
     inkscape:window-width="1920"
     inkscape:window-height="1011"
     inkscape:window-x="0"
     inkscape:window-y="0"
     inkscape:window-maximized="1"
     inkscape:current-layer="layer1" />
  <defs
     id="defs338" />
  <g
     inkscape:label="Layer 1"
     inkscape:groupmode="layer"
     id="layer1">
    <g
       aria-label="dual"
       transform="scale(0.980936,1.0194345)"
       id="text347"
       style="font-size:34.805px;font-family:'Baloo 2';-inkscape-font-specification:'Baloo 2, ';stroke-width:0.271913;image-rendering:optimizeQuality;fill:#ffffff">
      <path
         d="M 27.160022,44.57108 V 32.8766 l 2.7844,-0.03481 v 11.8337 q 0,0.661295 -0.313245,1.078955 -0.27844,0.382855 -0.90493,0.76571 -0.6961,0.452465 -1.983885,0.83532 -1.287785,0.41766 -2.958425,0.41766 -2.50596,0 -4.420235,-0.870125 -1.914275,-0.870125 -2.99323,-2.71479 -1.078955,-1.87947 -1.078955,-4.837895 0,-3.028035 1.04415,-4.907505 1.078955,-1.87947 2.888815,-2.749595 1.80986,-0.90493 3.96777,-0.90493 1.357395,0 2.57557,0.382855 1.218175,0.382855 1.914275,0.939735 v 2.57557 q -0.661295,-0.661295 -1.74025,-1.11376 -1.04415,-0.48727 -2.471155,-0.48727 -1.427005,0 -2.64518,0.62649 -1.218175,0.591685 -1.94908,1.983885 -0.730905,1.3922 -0.730905,3.724135 0,3.167255 1.53142,4.629065 1.53142,1.427005 4.072185,1.427005 1.218175,0 1.983885,-0.243635 0.800515,-0.27844 1.427005,-0.661295 z m 2.7844,-11.033185 -2.7844,0.0348 v -8.805665 q 0.174025,-0.06961 0.522075,-0.13922 0.382855,-0.104415 0.76571,-0.104415 0.76571,0 1.11376,0.313245 0.382855,0.27844 0.382855,0.939735 z"
         id="path1003"
         style="fill:#ffffff" />
      <path
         d="m 35.234813,41.43863 v -3.167255 h 2.7844 v 3.028035 q 0,2.22752 1.18337,3.20206 1.18337,0.97454 3.27167,0.97454 1.3922,0 2.36674,-0.27844 0.97454,-0.313245 1.53142,-0.62649 v -6.299705 h 2.7844 v 6.19529 q 0,0.730905 -0.20883,1.18337 -0.174025,0.41766 -0.90493,0.83532 -0.76571,0.452465 -2.192715,0.870125 -1.427005,0.41766 -3.41089,0.41766 -2.29713,0 -3.932965,-0.661295 -1.60103,-0.6961 -2.43635,-2.0883 -0.83532,-1.427005 -0.83532,-3.584915 z m 13.922,-1.357395 h -2.7844 v -8.77086 q 0.174025,-0.06961 0.522075,-0.13922 0.382855,-0.104415 0.76571,-0.104415 0.76571,0 1.11376,0.313245 0.382855,0.27844 0.382855,0.97454 z m -11.1376,0 h -2.7844 v -8.77086 q 0.174025,-0.06961 0.522075,-0.13922 0.382855,-0.104415 0.800515,-0.104415 0.730905,0 1.078955,0.313245 0.382855,0.27844 0.382855,0.97454 z"
         id="path1005"
         style="fill:#ffffff" />
      <path
         d="m 60.120363,45.510815 q 1.46181,0 2.401545,-0.27844 0.97454,-0.313245 1.3922,-0.591685 v -5.046725 l -4.31582,0.452465 q -1.80986,0.13922 -2.679985,0.800515 -0.870125,0.661295 -0.870125,1.914275 0,1.287785 1.009345,2.01869 1.04415,0.730905 3.06284,0.730905 z M 60.085558,30.7883 q 3.028035,0 4.80309,1.357395 1.775055,1.357395 1.775055,4.281015 v 8.248785 q 0,0.76571 -0.313245,1.18337 -0.27844,0.382855 -0.870125,0.730905 -0.83532,0.452465 -2.22752,0.83532 -1.3922,0.382855 -3.13245,0.382855 -3.27167,0 -5.08153,-1.287785 -1.775055,-1.287785 -1.775055,-3.724135 0,-2.262325 1.496615,-3.445695 1.53142,-1.218175 4.211405,-1.46181 l 4.94231,-0.48727 v -0.97454 q 0,-1.74025 -1.04415,-2.540765 -1.04415,-0.800515 -2.819205,-0.800515 -1.427005,0 -2.749595,0.41766 -1.287785,0.41766 -2.29713,0.939735 -0.27844,-0.243635 -0.522075,-0.55688 -0.20883,-0.34805 -0.20883,-0.6961 0,-0.90493 1.009345,-1.3922 0.939735,-0.48727 2.15791,-0.730905 1.25298,-0.27844 2.64518,-0.27844 z"
         id="path1007"
         style="fill:#ffffff" />
      <path
         d="m 72.023692,38.132155 2.7844,0.41766 v 8.70125 q -0.174025,0.06961 -0.522075,0.13922 -0.34805,0.104415 -0.76571,0.104415 -0.730905,0 -1.11376,-0.27844 -0.382855,-0.313245 -0.382855,-0.97454 z m 2.7844,1.74025 -2.7844,-0.382855 V 24.767035 q 0.174025,-0.06961 0.522075,-0.13922 0.382855,-0.104415 0.76571,-0.104415 0.76571,0 1.11376,0.313245 0.382855,0.27844 0.382855,0.939735 z"
         id="path1009"
         style="fill:#ffffff" />
    </g>
    <g
       aria-label="solutions"
       transform="scale(0.980936,1.0194345)"
       id="text351"
       style="font-size:34.805px;font-family:'Baloo 2';-inkscape-font-specification:'Baloo 2, ';stroke-width:0.271913;image-rendering:optimizeQuality;fill:#ffffff">
      <path
         d="m 66.186271,68.836722 q 0,2.22752 -1.635835,3.4805 -1.635835,1.25298 -4.73348,1.25298 -2.64518,0 -4.31582,-0.800515 -1.670641,-0.83532 -1.670641,-1.80986 0,-0.41766 0.208831,-0.800515 0.243635,-0.41766 0.6961,-0.661295 0.939735,0.661295 2.192715,1.218175 1.25298,0.55688 2.85401,0.55688 3.61972,0 3.61972,-2.43635 0,-1.009345 -0.62649,-1.635835 -0.591685,-0.661295 -1.775055,-0.939735 l -2.888815,-0.76571 q -2.123105,-0.522075 -3.097645,-1.60103 -0.97454,-1.11376 -0.97454,-2.749595 0,-1.844665 1.496615,-3.20206 1.496615,-1.357395 4.559455,-1.357395 1.635835,0 2.85401,0.34805 1.218175,0.313245 1.87947,0.870125 0.6961,0.522075 0.6961,1.148565 0,0.452465 -0.243635,0.800515 -0.20883,0.34805 -0.591685,0.522075 -0.41766,-0.27844 -1.078955,-0.591685 -0.62649,-0.34805 -1.496615,-0.55688 -0.870125,-0.243635 -1.914275,-0.243635 -1.53142,0 -2.471155,0.591685 -0.939735,0.591685 -0.939735,1.67064 0,0.76571 0.522075,1.357395 0.55688,0.55688 1.74025,0.83532 l 2.401545,0.591685 q 2.36674,0.55688 3.55011,1.775055 1.18337,1.18337 1.18337,3.13245 z"
         id="path984"
         style="fill:#ffffff" />
      <path
         d="m 85.503034,65.077782 q 0,2.57557 -0.97454,4.489845 -0.97454,1.914275 -2.749595,2.958425 -1.775055,1.04415 -4.1766,1.04415 -2.401545,0 -4.211405,-1.04415 -1.775055,-1.04415 -2.749595,-2.958425 -0.97454,-1.914275 -0.97454,-4.489845 0,-2.610375 0.97454,-4.489845 1.009345,-1.914275 2.7844,-2.958425 1.80986,-1.04415 4.1766,-1.04415 2.36674,0 4.141795,1.04415 1.775055,1.04415 2.749595,2.958425 1.009345,1.87947 1.009345,4.489845 z m -7.900735,-6.19529 q -2.331935,0 -3.724135,1.67064 -1.357395,1.635835 -1.357395,4.52465 0,2.92362 1.32259,4.559455 1.357395,1.635835 3.75894,1.635835 2.36674,0 3.68933,-1.635835 1.357395,-1.67064 1.357395,-4.559455 0,-2.888815 -1.357395,-4.52465 -1.32259,-1.67064 -3.68933,-1.67064 z"
         id="path986"
         style="fill:#ffffff" />
      <path
         d="m 90.097277,63.929217 2.7844,0.41766 v 8.70125 q -0.174025,0.06961 -0.522075,0.13922 -0.34805,0.104415 -0.76571,0.104415 -0.730905,0 -1.11376,-0.27844 -0.382855,-0.313245 -0.382855,-0.97454 z m 2.7844,1.74025 -2.7844,-0.382855 V 50.564097 q 0.174025,-0.06961 0.522075,-0.13922 0.382855,-0.104415 0.76571,-0.104415 0.76571,0 1.11376,0.313245 0.382855,0.27844 0.382855,0.939735 z"
         id="path988"
         style="fill:#ffffff" />
      <path
         d="m 98.380879,67.235692 v -3.167255 h 2.784401 v 3.028035 q 0,2.22752 1.18337,3.20206 1.18337,0.97454 3.27167,0.97454 1.3922,0 2.36674,-0.27844 0.97454,-0.313245 1.53142,-0.62649 v -6.299705 h 2.7844 v 6.19529 q 0,0.730905 -0.20883,1.18337 -0.17403,0.41766 -0.90493,0.83532 -0.76571,0.452465 -2.19272,0.870125 -1.427,0.41766 -3.41089,0.41766 -2.29713,0 -3.93296,-0.661295 -1.60103,-0.6961 -2.436351,-2.0883 -0.83532,-1.427005 -0.83532,-3.584915 z m 13.922001,-1.357395 h -2.7844 v -8.77086 q 0.17402,-0.06961 0.52207,-0.13922 0.38286,-0.104415 0.76571,-0.104415 0.76571,0 1.11376,0.313245 0.38286,0.27844 0.38286,0.97454 z m -11.1376,0 h -2.784401 v -8.77086 q 0.174025,-0.06961 0.522075,-0.13922 0.382855,-0.104415 0.800515,-0.104415 0.730901,0 1.078951,0.313245 0.38286,0.27844 0.38286,0.97454 z"
         id="path990"
         style="fill:#ffffff" />
      <path
         d="m 117.55841,63.929217 h 2.7844 v 4.80309 q 0,1.3922 0.80051,1.983885 0.80052,0.55688 2.19272,0.55688 0.59168,0 1.32259,-0.20883 0.7309,-0.20883 1.21817,-0.48727 0.20883,0.20883 0.38286,0.522075 0.17402,0.313245 0.17402,0.730905 0,0.76571 -0.90493,1.25298 -0.90493,0.48727 -2.50596,0.48727 -2.43635,0 -3.96777,-1.078955 -1.49661,-1.078955 -1.49661,-3.584915 z m 1.427,-4.24621 v -2.29713 h 7.06542 q 0.10441,0.13922 0.20883,0.452465 0.10441,0.313245 0.10441,0.661295 0,0.55688 -0.27844,0.870125 -0.27844,0.313245 -0.76571,0.313245 z m 1.3574,5.29036 h -2.7844 v -12.59941 q 0.17402,-0.06961 0.52207,-0.13922 0.38286,-0.104415 0.80052,-0.104415 0.7309,0 1.07895,0.313245 0.38286,0.27844 0.38286,0.939735 z"
         id="path992"
         style="fill:#ffffff" />
      <path
         d="m 130.22742,51.956297 q 0,-0.730905 0.52207,-1.218175 0.52208,-0.522075 1.28779,-0.522075 0.80051,0 1.28778,0.522075 0.48727,0.48727 0.48727,1.218175 0,0.730905 -0.48727,1.25298 -0.48727,0.48727 -1.28778,0.48727 -0.76571,0 -1.28779,-0.48727 -0.52207,-0.522075 -0.52207,-1.25298 z m 0.41766,11.97292 h 2.7844 v 9.11891 q -0.17403,0.06961 -0.52208,0.13922 -0.34805,0.104415 -0.76571,0.104415 -0.7309,0 -1.11376,-0.27844 -0.38285,-0.313245 -0.38285,-0.97454 z m 2.7844,1.357395 h -2.7844 v -8.179175 q 0.17402,-0.06961 0.52207,-0.13922 0.38286,-0.104415 0.80052,-0.104415 0.7309,0 1.07895,0.313245 0.38286,0.27844 0.38286,0.97454 z"
         id="path994"
         style="fill:#ffffff" />
      <path
         d="m 153.79037,65.077782 q 0,2.57557 -0.97454,4.489845 -0.97454,1.914275 -2.74959,2.958425 -1.77506,1.04415 -4.1766,1.04415 -2.40155,0 -4.21141,-1.04415 -1.77505,-1.04415 -2.74959,-2.958425 -0.97454,-1.914275 -0.97454,-4.489845 0,-2.610375 0.97454,-4.489845 1.00934,-1.914275 2.7844,-2.958425 1.80986,-1.04415 4.1766,-1.04415 2.36674,0 4.14179,1.04415 1.77506,1.04415 2.7496,2.958425 1.00934,1.87947 1.00934,4.489845 z m -7.90073,-6.19529 q -2.33194,0 -3.72414,1.67064 -1.35739,1.635835 -1.35739,4.52465 0,2.92362 1.32259,4.559455 1.35739,1.635835 3.75894,1.635835 2.36674,0 3.68933,-1.635835 1.35739,-1.67064 1.35739,-4.559455 0,-2.888815 -1.35739,-4.52465 -1.32259,-1.67064 -3.68933,-1.67064 z"
         id="path996"
         style="fill:#ffffff" />
      <path
         d="m 172.02818,62.502212 v 3.55011 h -2.7844 v -3.41089 q 0,-1.94908 -1.11376,-2.85401 -1.07896,-0.90493 -2.92362,-0.90493 -1.3922,0 -2.47116,0.34805 -1.07895,0.34805 -1.84466,0.800515 v 6.021265 h -2.7844 v -5.882045 q 0,-0.730905 0.27844,-1.18337 0.31324,-0.48727 1.04415,-0.939735 0.90493,-0.522075 2.40154,-0.97454 1.49662,-0.48727 3.37609,-0.48727 3.16725,0 4.97711,1.46181 1.84467,1.427005 1.84467,4.45504 z m -13.922,1.635835 h 2.7844 v 8.91008 q -0.17403,0.06961 -0.52208,0.13922 -0.34805,0.104415 -0.76571,0.104415 -0.7309,0 -1.11376,-0.27844 -0.38285,-0.313245 -0.38285,-0.97454 z m 11.1376,0 h 2.7844 v 8.91008 q -0.17403,0.06961 -0.55688,0.13922 -0.34805,0.104415 -0.73091,0.104415 -0.76571,0 -1.14856,-0.27844 -0.34805,-0.313245 -0.34805,-0.97454 z"
         id="path998"
         style="fill:#ffffff" />
      <path
         d="m 188.59533,68.836722 q 0,2.22752 -1.63584,3.4805 -1.63583,1.25298 -4.73348,1.25298 -2.64518,0 -4.31582,-0.800515 -1.67064,-0.83532 -1.67064,-1.80986 0,-0.41766 0.20883,-0.800515 0.24364,-0.41766 0.6961,-0.661295 0.93974,0.661295 2.19272,1.218175 1.25298,0.55688 2.85401,0.55688 3.61972,0 3.61972,-2.43635 0,-1.009345 -0.62649,-1.635835 -0.59169,-0.661295 -1.77506,-0.939735 l -2.88881,-0.76571 q -2.12311,-0.522075 -3.09765,-1.60103 -0.97454,-1.11376 -0.97454,-2.749595 0,-1.844665 1.49662,-3.20206 1.49661,-1.357395 4.55945,-1.357395 1.63584,0 2.85401,0.34805 1.21818,0.313245 1.87947,0.870125 0.6961,0.522075 0.6961,1.148565 0,0.452465 -0.24363,0.800515 -0.20883,0.34805 -0.59169,0.522075 -0.41766,-0.27844 -1.07895,-0.591685 -0.62649,-0.34805 -1.49662,-0.55688 -0.87012,-0.243635 -1.91427,-0.243635 -1.53142,0 -2.47116,0.591685 -0.93973,0.591685 -0.93973,1.67064 0,0.76571 0.52207,1.357395 0.55688,0.55688 1.74025,0.83532 l 2.40155,0.591685 q 2.36674,0.55688 3.55011,1.775055 1.18337,1.18337 1.18337,3.13245 z"
         id="path1000"
         style="fill:#ffffff" />
    </g>
    <g
       aria-label="u"
       id="text355"
       style="font-size:33.8667px;font-family:'Baloo 2';-inkscape-font-specification:'Baloo 2, ';opacity:0.5;stroke-width:0.264583;image-rendering:optimizeQuality;fill:#ffffff">
      <path
         d="M 154.60211,53.151169 V 50.0693 h 2.70933 v 2.946402 q 0,2.167469 1.15147,3.115737 1.15147,0.948267 3.18347,0.948267 1.35467,0 2.30293,-0.270933 0.94827,-0.304801 1.49014,-0.609601 V 50.0693 h 2.70934 v 6.028272 q 0,0.711201 -0.2032,1.151468 -0.16934,0.4064 -0.88054,0.812801 -0.74507,0.440267 -2.1336,0.846667 -1.38854,0.406401 -3.31894,0.406401 -2.2352,0 -3.82693,-0.643468 -1.55787,-0.677334 -2.37067,-2.032002 -0.8128,-1.388534 -0.8128,-3.48827 z m 13.54668,-1.320801 h -2.70934 V 43.29596 q 0.16933,-0.06773 0.508,-0.135467 0.37253,-0.1016 0.74507,-0.1016 0.74506,0 1.08373,0.3048 0.37254,0.270934 0.37254,0.948268 z m -10.83735,0 h -2.70933 V 43.29596 q 0.16933,-0.06773 0.508,-0.135467 0.37253,-0.1016 0.77893,-0.1016 0.7112,0 1.04987,0.3048 0.37253,0.270934 0.37253,0.948268 z"
         id="path981"
         style="fill:#ffffff" />
    </g>
    <g
       aria-label="n"
       id="text359"
       style="font-size:33.8667px;font-family:'Baloo 2';-inkscape-font-specification:'Baloo 2, ';opacity:0.5;stroke-width:0.264583;image-rendering:optimizeQuality;fill:#ffffff">
      <path
         d="m 48.715615,52.730753 v 3.454404 H 46.006279 V 52.86622 q 0,-1.896535 -1.083734,-2.777069 -1.049868,-0.880534 -2.844803,-0.880534 -1.354668,0 -2.404536,0.338667 -1.049867,0.338667 -1.794935,0.778934 v 5.858939 h -2.709336 v -5.723472 q 0,-0.711201 0.270934,-1.151468 0.3048,-0.474134 1.016001,-0.914401 0.880534,-0.508001 2.336802,-0.948268 1.456268,-0.474133 3.28507,-0.474133 3.08187,0 4.842938,1.422401 1.794935,1.388535 1.794935,4.334937 z m -13.54668,1.591735 h 2.709336 v 8.669875 q -0.169333,0.06773 -0.508,0.135467 -0.338667,0.1016 -0.745068,0.1016 -0.7112,0 -1.083734,-0.270933 -0.372534,-0.304801 -0.372534,-0.948268 z m 10.837344,0 h 2.709336 v 8.669875 q -0.169333,0.06773 -0.541867,0.135467 -0.338667,0.1016 -0.711201,0.1016 -0.745067,0 -1.117601,-0.270933 -0.338667,-0.304801 -0.338667,-0.948268 z"
         id="path978"
         style="fill:#ffffff" />
    </g>
    <text
       xml:space="preserve"
       style="font-size:33.8667px;font-family:'Baloo 2';-inkscape-font-specification:'Baloo 2, ';opacity:0.5;fill:#ffffff;stroke-width:0.264583"
       x="-20.227137"
       y="49.493015"
       id="text1014"><tspan
         sodipodi:role="line"
         id="tspan1012"
         style="stroke-width:0.264583;fill:#ffffff"
         x="-20.227137"
         y="49.493015">`</tspan></text>
  </g>
</svg>
